<?xml version="1.0" encoding="UTF-8" standalone="no"?>
<!DOCTYPE svg PUBLIC "-//W3C//DTD SVG 1.1//EN" "http://www.w3.org/Graphics/SVG/1.1/DTD/svg11.dtd">
<svg xmlns="http://www.w3.org/2000/svg" version="1.1" viewBox="0.00 0.00 1024.00 1024.00">
	<g stroke-width="2.00" fill="none" stroke-linecap="butt">
		<path stroke="#88722d" vector-effect="non-scaling-stroke" d="
  M 736.65 452.66
  C 733.01 450.69 730.97 448.85 731.08 445.19
  C 731.51 430.69 729.61 414.02 724.10 400.17
  Q 719.54 388.73 708.92 378.06
  C 684.74 353.77 646.33 341.38 612.61 354.58
  C 610.62 355.35 608.39 358.87 606.08 359.64
  C 602.27 360.90 600.44 359.29 598.11 356.05
  Q 595.99 353.10 593.85 350.12
  Q 576.21 325.52 547.36 313.41
  Q 530.73 306.43 514.99 305.52
  Q 500.56 304.69 492.24 305.43
  Q 458.82 308.41 432.87 328.86
  Q 403.39 352.08 393.82 388.50
  Q 392.81 392.36 389.30 393.64
  Q 387.40 394.34 382.29 393.02
  C 366.07 388.83 350.15 387.25 333.54 390.59
  C 288.12 399.72 256.42 435.91 252.57 481.76
  Q 251.63 492.96 252.19 500.56
  C 254.47 531.59 269.16 559.31 294.92 576.62
  C 311.86 588.00 331.68 594.46 352.50 594.90
  Q 358.78 595.04 361.50 595.04
  Q 408.00 595.05 702.74 595.09
  Q 725.78 595.09 731.20 594.25
  C 783.56 586.14 808.68 527.35 779.20 483.66
  Q 768.06 467.15 748.79 458.30
  Q 737.48 453.11 736.65 452.66" />
		<path stroke="#88722d" vector-effect="non-scaling-stroke" d="
  M 511.59 671.84
  Q 599.25 671.84 637.34 671.84
  A 0.84 0.84 0.0 0 0 638.18 671.00
  Q 638.07 647.98 633.76 625.58
  A 0.71 0.71 0.0 0 0 633.06 625.01
  Q 572.15 625.01 511.59 625.01
  Q 451.02 625.02 390.11 625.02
  A 0.71 0.71 0.0 0 0 389.41 625.59
  Q 385.10 647.99 385.00 671.01
  A 0.84 0.84 0.0 0 0 385.83 671.85
  Q 423.92 671.84 511.59 671.84" />
		<path stroke="#88722d" vector-effect="non-scaling-stroke" d="
  M 510.90 782.88
  Q 552.63 782.88 554.50 782.90
  Q 558.70 782.94 564.13 782.39
  A 6.70 6.56 -57.9 0 0 565.84 781.98
  C 567.23 781.45 568.57 780.92 569.70 780.21
  Q 599.62 761.30 616.66 730.08
  A 0.25 0.24 -76.0 0 0 616.44 729.72
  Q 602.82 729.75 510.90 729.74
  Q 418.98 729.73 405.36 729.70
  A 0.25 0.24 76.0 0 0 405.14 730.06
  Q 422.18 761.28 452.09 780.20
  C 453.22 780.91 454.56 781.44 455.95 781.97
  A 6.70 6.56 57.9 0 0 457.66 782.38
  Q 463.09 782.93 467.30 782.89
  Q 469.16 782.87 510.90 782.88" />
		<path stroke="#88722d" vector-effect="non-scaling-stroke" d="
  M 539.1557 409.4711
  A 13.50 13.50 0.0 0 0 529.6387 392.9204
  L 529.2525 392.8162
  A 13.50 13.50 0.0 0 0 512.7018 402.3333
  L 474.9443 542.2689
  A 13.50 13.50 0.0 0 0 484.4613 558.8196
  L 484.8475 558.9238
  A 13.50 13.50 0.0 0 0 501.3982 549.4067
  L 539.1557 409.4711" />
		<path stroke="#88722d" vector-effect="non-scaling-stroke" d="
  M 601.85 475.65
  A 0.39 0.39 0.0 0 1 601.84 476.25
  Q 585.99 488.95 572.02 499.78
  Q 566.80 503.83 562.93 507.43
  Q 558.67 511.41 557.71 514.23
  Q 553.91 525.37 563.04 531.30
  C 567.66 534.29 572.93 533.51 577.49 530.74
  Q 584.20 526.67 589.99 522.24
  Q 613.71 504.08 615.50 502.76
  Q 623.23 497.03 631.27 489.78
  C 639.42 482.42 642.37 473.50 633.54 464.90
  Q 626.82 458.35 617.24 451.00
  Q 586.28 427.24 582.82 424.70
  C 576.91 420.35 570.76 417.71 563.83 421.28
  C 556.31 425.15 554.31 435.21 560.58 441.47
  Q 565.04 445.93 569.06 448.95
  Q 586.21 461.80 601.85 475.65" />
		<path stroke="#88722d" vector-effect="non-scaling-stroke" d="
  M 415.31 476.30
  Q 415.27 475.98 415.51 475.79
  Q 436.12 459.52 448.79 449.79
  Q 453.00 446.56 456.82 442.83
  C 466.36 433.55 455.90 416.62 443.26 421.78
  Q 437.92 423.96 434.87 426.11
  Q 411.43 442.58 390.23 459.23
  Q 383.06 464.87 381.18 467.47
  Q 375.86 474.87 379.91 483.03
  A 4.89 4.62 -80.3 0 0 380.57 484.02
  Q 384.87 488.98 386.94 490.66
  Q 397.12 498.94 432.13 525.86
  Q 437.84 530.25 442.25 531.99
  C 454.85 536.95 465.68 521.71 456.91 511.20
  C 455.21 509.16 452.20 506.08 450.29 504.53
  Q 431.99 489.70 415.72 476.84
  Q 415.34 476.54 415.31 476.30" />
	</g>
	<path fill="#ffc739" d="
  M 391.93 157.80
  Q 397.68 155.05 400.27 155.08
  Q 408.87 155.21 417.47 158.26
  Q 427.57 161.84 436.40 167.08
  Q 437.06 167.47 437.55 167.96
  A 2.14 1.98 78.3 0 0 438.11 168.36
  Q 442.19 170.44 445.74 174.06
  A 3.13 2.93 80.6 0 0 446.38 174.55
  C 449.52 176.39 454.44 181.56 457.33 185.27
  C 467.55 198.39 475.09 213.13 478.31 229.46
  A 1.90 1.89 -10.1 0 0 480.47 230.96
  Q 482.43 230.63 488.82 229.41
  C 491.57 228.88 494.43 229.02 496.93 228.41
  Q 498.39 228.05 500.16 227.99
  Q 510.29 227.63 521.20 228.12
  C 522.04 228.16 523.31 228.68 524.38 228.79
  Q 534.45 229.76 544.74 232.96
  A 1.68 1.68 0.0 0 0 546.89 231.68
  Q 551.71 207.00 566.73 187.79
  Q 572.16 180.85 578.01 175.92
  Q 586.35 168.87 591.28 166.29
  C 594.62 164.54 597.71 162.49 601.39 160.79
  Q 608.78 157.36 618.43 155.59
  Q 623.91 154.59 627.56 155.83
  C 634.97 158.34 639.67 164.48 638.14 172.40
  Q 636.80 179.32 630.60 182.33
  C 626.94 184.10 622.05 183.76 618.22 185.10
  Q 606.47 189.22 598.37 195.65
  Q 576.28 213.21 568.37 240.76
  A 1.79 1.78 24.4 0 0 569.13 242.76
  Q 577.51 248.04 585.48 255.68
  Q 593.79 263.64 599.08 271.63
  Q 611.89 291.00 615.02 315.07
  C 615.49 318.72 616.11 321.33 616.03 325.01
  A 0.62 0.62 0.0 0 0 616.79 325.63
  Q 624.32 323.83 632.04 322.72
  C 639.04 321.71 644.60 321.84 651.99 322.12
  Q 655.37 322.25 666.38 324.19
  Q 678.04 326.25 690.51 331.78
  Q 704.05 337.78 714.90 345.63
  Q 719.32 348.83 720.57 349.93
  Q 720.96 350.27 722.50 351.87
  A 4.77 4.69 85.3 0 0 723.15 352.43
  Q 729.47 356.90 733.76 363.01
  A 4.61 4.31 5.2 0 0 734.43 363.76
  Q 735.81 365.00 736.32 365.71
  Q 737.42 367.20 741.51 372.89
  Q 743.81 376.09 746.15 380.40
  Q 756.14 398.83 758.21 420.25
  Q 758.75 425.81 759.12 432.47
  A 2.45 2.44 10.1 0 0 760.58 434.56
  Q 771.90 439.43 781.67 446.49
  C 783.51 447.82 784.78 449.39 786.67 450.36
  A 2.88 2.63 -7.1 0 1 787.25 450.77
  Q 816.03 476.88 819.91 515.79
  Q 820.30 519.65 820.16 527.44
  Q 820.05 533.80 819.27 539.01
  C 813.67 576.17 787.85 606.47 752.70 618.37
  Q 744.79 621.05 735.53 622.74
  Q 728.38 624.06 717.89 624.02
  Q 674.67 623.89 662.23 624.04
  A 0.74 0.74 0.0 0 0 661.51 624.91
  Q 662.51 630.40 663.74 638.58
  Q 664.11 641.06 664.08 642.94
  C 664.05 644.94 664.93 646.82 664.92 648.75
  Q 664.88 654.96 665.41 661.82
  C 665.75 666.21 664.89 670.52 664.95 675.54
  A 8.06 7.85 52.7 0 1 664.70 677.60
  C 663.96 680.45 664.00 683.44 663.53 686.70
  Q 655.30 743.52 613.74 784.03
  Q 593.06 804.18 566.03 816.75
  Q 559.64 819.73 552.17 822.46
  Q 549.89 823.29 548.59 825.10
  C 539.06 838.43 529.95 852.04 520.31 865.31
  Q 517.90 868.63 513.76 868.81
  Q 509.48 868.99 507.00 868.79
  C 504.18 868.57 502.69 867.47 500.92 864.97
  Q 488.04 846.84 475.01 828.21
  Q 472.95 825.27 471.32 822.82
  A 1.45 1.43 -6.9 0 0 470.58 822.25
  Q 440.10 811.48 416.05 790.45
  Q 393.62 770.83 379.18 745.06
  C 376.62 740.50 374.65 735.64 372.26 730.79
  Q 371.19 728.63 369.74 724.94
  Q 363.42 708.87 360.12 690.46
  C 359.88 689.10 359.99 687.70 359.66 686.48
  Q 358.98 684.01 358.99 681.59
  C 359.00 678.17 358.38 675.98 358.19 672.27
  Q 356.99 648.56 361.87 625.58
  A 1.23 1.22 7.6 0 0 360.73 624.10
  C 354.43 623.75 347.95 624.29 341.17 623.51
  Q 324.42 621.59 313.42 617.82
  Q 267.24 602.00 242.20 562.09
  Q 228.08 539.58 224.28 511.75
  C 223.95 509.36 224.09 506.65 223.37 504.10
  A 5.55 5.32 37.8 0 1 223.16 502.68
  Q 222.87 487.63 223.11 485.28
  C 223.23 484.13 223.57 483.02 223.63 481.97
  Q 224.92 458.89 234.29 437.02
  Q 236.55 431.74 240.42 424.19
  Q 240.58 423.87 240.77 423.70
  A 2.07 0.48 -37.1 0 0 241.38 422.97
  Q 243.25 419.41 245.75 415.73
  C 246.83 414.15 247.68 412.27 249.03 411.42
  A 1.31 1.28 82.6 0 0 249.59 410.68
  Q 249.80 409.99 251.10 408.36
  Q 258.02 399.70 266.99 391.46
  Q 268.24 390.30 270.01 389.12
  Q 270.87 388.55 272.90 386.58
  A 3.32 3.18 8.7 0 1 273.74 385.99
  Q 274.69 385.52 276.33 384.11
  Q 277.18 383.38 278.95 382.21
  Q 303.46 365.97 332.40 361.21
  Q 335.07 360.77 336.09 360.85
  C 337.79 360.98 339.18 360.26 340.99 360.15
  Q 358.23 359.11 373.76 361.17
  A 1.68 1.67 -74.7 0 0 375.51 360.17
  Q 378.02 354.19 381.47 348.44
  Q 388.81 336.20 400.55 325.55
  Q 401.42 324.77 407.41 319.07
  A 2.27 2.22 10.0 0 1 407.92 318.72
  Q 409.91 317.72 411.06 316.39
  Q 411.67 315.69 411.98 313.30
  Q 415.23 288.37 428.98 267.49
  Q 429.47 266.74 430.00 266.40
  A 1.33 1.30 -8.3 0 0 430.54 265.69
  Q 431.18 263.75 433.04 262.33
  A 1.77 1.77 0.0 0 0 433.63 261.54
  Q 434.09 260.29 435.30 259.05
  Q 440.79 253.38 444.42 249.93
  Q 445.41 248.98 446.25 248.68
  A 0.80 0.46 -59.9 0 0 446.39 248.60
  L 456.11 241.11
  A 2.39 2.38 62.4 0 0 456.93 238.49
  Q 450.14 216.94 435.15 200.93
  Q 432.13 197.70 425.43 193.09
  Q 414.26 185.41 401.75 183.99
  C 396.00 183.34 392.23 182.72 388.80 178.42
  Q 386.91 176.04 386.28 172.34
  Q 384.93 164.35 391.20 158.31
  A 2.55 2.54 -79.8 0 1 391.93 157.80
  Z
  M 736.65 452.66
  C 733.01 450.69 730.97 448.85 731.08 445.19
  C 731.51 430.69 729.61 414.02 724.10 400.17
  Q 719.54 388.73 708.92 378.06
  C 684.74 353.77 646.33 341.38 612.61 354.58
  C 610.62 355.35 608.39 358.87 606.08 359.64
  C 602.27 360.90 600.44 359.29 598.11 356.05
  Q 595.99 353.10 593.85 350.12
  Q 576.21 325.52 547.36 313.41
  Q 530.73 306.43 514.99 305.52
  Q 500.56 304.69 492.24 305.43
  Q 458.82 308.41 432.87 328.86
  Q 403.39 352.08 393.82 388.50
  Q 392.81 392.36 389.30 393.64
  Q 387.40 394.34 382.29 393.02
  C 366.07 388.83 350.15 387.25 333.54 390.59
  C 288.12 399.72 256.42 435.91 252.57 481.76
  Q 251.63 492.96 252.19 500.56
  C 254.47 531.59 269.16 559.31 294.92 576.62
  C 311.86 588.00 331.68 594.46 352.50 594.90
  Q 358.78 595.04 361.50 595.04
  Q 408.00 595.05 702.74 595.09
  Q 725.78 595.09 731.20 594.25
  C 783.56 586.14 808.68 527.35 779.20 483.66
  Q 768.06 467.15 748.79 458.30
  Q 737.48 453.11 736.65 452.66
  Z
  M 511.59 671.84
  Q 599.25 671.84 637.34 671.84
  A 0.84 0.84 0.0 0 0 638.18 671.00
  Q 638.07 647.98 633.76 625.58
  A 0.71 0.71 0.0 0 0 633.06 625.01
  Q 572.15 625.01 511.59 625.01
  Q 451.02 625.02 390.11 625.02
  A 0.71 0.71 0.0 0 0 389.41 625.59
  Q 385.10 647.99 385.00 671.01
  A 0.84 0.84 0.0 0 0 385.83 671.85
  Q 423.92 671.84 511.59 671.84
  Z
  M 510.90 782.88
  Q 552.63 782.88 554.50 782.90
  Q 558.70 782.94 564.13 782.39
  A 6.70 6.56 -57.9 0 0 565.84 781.98
  C 567.23 781.45 568.57 780.92 569.70 780.21
  Q 599.62 761.30 616.66 730.08
  A 0.25 0.24 -76.0 0 0 616.44 729.72
  Q 602.82 729.75 510.90 729.74
  Q 418.98 729.73 405.36 729.70
  A 0.25 0.24 76.0 0 0 405.14 730.06
  Q 422.18 761.28 452.09 780.20
  C 453.22 780.91 454.56 781.44 455.95 781.97
  A 6.70 6.56 57.9 0 0 457.66 782.38
  Q 463.09 782.93 467.30 782.89
  Q 469.16 782.87 510.90 782.88
  Z" />
	<path fill="#000000" d="
  M 731.08 445.19
  C 730.97 448.85 733.01 450.69 736.65 452.66
  Q 737.48 453.11 748.79 458.30
  Q 768.06 467.15 779.20 483.66
  C 808.68 527.35 783.56 586.14 731.20 594.25
  Q 725.78 595.09 702.74 595.09
  Q 408.00 595.05 361.50 595.04
  Q 358.78 595.04 352.50 594.90
  C 331.68 594.46 311.86 588.00 294.92 576.62
  C 269.16 559.31 254.47 531.59 252.19 500.56
  Q 251.63 492.96 252.57 481.76
  C 256.42 435.91 288.12 399.72 333.54 390.59
  C 350.15 387.25 366.07 388.83 382.29 393.02
  Q 387.40 394.34 389.30 393.64
  Q 392.81 392.36 393.82 388.50
  Q 403.39 352.08 432.87 328.86
  Q 458.82 308.41 492.24 305.43
  Q 500.56 304.69 514.99 305.52
  Q 530.73 306.43 547.36 313.41
  Q 576.21 325.52 593.85 350.12
  Q 595.99 353.10 598.11 356.05
  C 600.44 359.29 602.27 360.90 606.08 359.64
  C 608.39 358.87 610.62 355.35 612.61 354.58
  C 646.33 341.38 684.74 353.77 708.92 378.06
  Q 719.54 388.73 724.10 400.17
  C 729.61 414.02 731.51 430.69 731.08 445.19
  Z
  M 539.1557 409.4711
  A 13.50 13.50 0.0 0 0 529.6387 392.9204
  L 529.2525 392.8162
  A 13.50 13.50 0.0 0 0 512.7018 402.3333
  L 474.9443 542.2689
  A 13.50 13.50 0.0 0 0 484.4613 558.8196
  L 484.8475 558.9238
  A 13.50 13.50 0.0 0 0 501.3982 549.4067
  L 539.1557 409.4711
  Z
  M 601.85 475.65
  A 0.39 0.39 0.0 0 1 601.84 476.25
  Q 585.99 488.95 572.02 499.78
  Q 566.80 503.83 562.93 507.43
  Q 558.67 511.41 557.71 514.23
  Q 553.91 525.37 563.04 531.30
  C 567.66 534.29 572.93 533.51 577.49 530.74
  Q 584.20 526.67 589.99 522.24
  Q 613.71 504.08 615.50 502.76
  Q 623.23 497.03 631.27 489.78
  C 639.42 482.42 642.37 473.50 633.54 464.90
  Q 626.82 458.35 617.24 451.00
  Q 586.28 427.24 582.82 424.70
  C 576.91 420.35 570.76 417.71 563.83 421.28
  C 556.31 425.15 554.31 435.21 560.58 441.47
  Q 565.04 445.93 569.06 448.95
  Q 586.21 461.80 601.85 475.65
  Z
  M 415.31 476.30
  Q 415.27 475.98 415.51 475.79
  Q 436.12 459.52 448.79 449.79
  Q 453.00 446.56 456.82 442.83
  C 466.36 433.55 455.90 416.62 443.26 421.78
  Q 437.92 423.96 434.87 426.11
  Q 411.43 442.58 390.23 459.23
  Q 383.06 464.87 381.18 467.47
  Q 375.86 474.87 379.91 483.03
  A 4.89 4.62 -80.3 0 0 380.57 484.02
  Q 384.87 488.98 386.94 490.66
  Q 397.12 498.94 432.13 525.86
  Q 437.84 530.25 442.25 531.99
  C 454.85 536.95 465.68 521.71 456.91 511.20
  C 455.21 509.16 452.20 506.08 450.29 504.53
  Q 431.99 489.70 415.72 476.84
  Q 415.34 476.54 415.31 476.30
  Z" />
	<rect fill="#ffc739" x="-13.70" y="-85.97" transform="translate(507.05,475.87) rotate(15.1)" width="27.40" height="171.94" rx="13.50" />
	<path fill="#ffc739" d="
  M 601.85 475.65
  Q 586.21 461.80 569.06 448.95
  Q 565.04 445.93 560.58 441.47
  C 554.31 435.21 556.31 425.15 563.83 421.28
  C 570.76 417.71 576.91 420.35 582.82 424.70
  Q 586.28 427.24 617.24 451.00
  Q 626.82 458.35 633.54 464.90
  C 642.37 473.50 639.42 482.42 631.27 489.78
  Q 623.23 497.03 615.50 502.76
  Q 613.71 504.08 589.99 522.24
  Q 584.20 526.67 577.49 530.74
  C 572.93 533.51 567.66 534.29 563.04 531.30
  Q 553.91 525.37 557.71 514.23
  Q 558.67 511.41 562.93 507.43
  Q 566.80 503.83 572.02 499.78
  Q 585.99 488.95 601.84 476.25
  A 0.39 0.39 0.0 0 0 601.85 475.65
  Z" />
	<path fill="#ffc739" d="
  M 415.31 476.30
  Q 415.34 476.54 415.72 476.84
  Q 431.99 489.70 450.29 504.53
  C 452.20 506.08 455.21 509.16 456.91 511.20
  C 465.68 521.71 454.85 536.95 442.25 531.99
  Q 437.84 530.25 432.13 525.86
  Q 397.12 498.94 386.94 490.66
  Q 384.87 488.98 380.57 484.02
  A 4.89 4.62 -80.3 0 1 379.91 483.03
  Q 375.86 474.87 381.18 467.47
  Q 383.06 464.87 390.23 459.23
  Q 411.43 442.58 434.87 426.11
  Q 437.92 423.96 443.26 421.78
  C 455.90 416.62 466.36 433.55 456.82 442.83
  Q 453.00 446.56 448.79 449.79
  Q 436.12 459.52 415.51 475.79
  Q 415.27 475.98 415.31 476.30
  Z" />
	<path fill="#000000" d="
  M 511.59 625.01
  Q 572.15 625.01 633.06 625.01
  A 0.71 0.71 0.0 0 1 633.76 625.58
  Q 638.07 647.98 638.18 671.00
  A 0.84 0.84 0.0 0 1 637.34 671.84
  Q 599.25 671.84 511.59 671.84
  Q 423.92 671.84 385.83 671.85
  A 0.84 0.84 0.0 0 1 385.00 671.01
  Q 385.10 647.99 389.41 625.59
  A 0.71 0.71 0.0 0 1 390.11 625.02
  Q 451.02 625.02 511.59 625.01
  Z" />
	<path fill="#000000" d="
  M 510.90 729.74
  Q 602.82 729.75 616.44 729.72
  A 0.25 0.24 -76.0 0 1 616.66 730.08
  Q 599.62 761.30 569.70 780.21
  C 568.57 780.92 567.23 781.45 565.84 781.98
  A 6.70 6.56 -57.9 0 1 564.13 782.39
  Q 558.70 782.94 554.50 782.90
  Q 552.63 782.88 510.90 782.88
  Q 469.16 782.87 467.30 782.89
  Q 463.09 782.93 457.66 782.38
  A 6.70 6.56 57.9 0 1 455.95 781.97
  C 454.56 781.44 453.22 780.91 452.09 780.20
  Q 422.18 761.28 405.14 730.06
  A 0.25 0.24 76.0 0 1 405.36 729.70
  Q 418.98 729.73 510.90 729.74
  Z" />
</svg>
